<svg width="620" height="120" viewBox="0 0 620 120" xmlns="http://www.w3.org/2000/svg">
<rect x="0" y="0" width="620" height="120" opacity="1" fill="#DCDCE6" stroke="none"/>
<line opacity="0.1" stroke="#000000" stroke-width="1" x1="190" y1="89" x2="190" y2="10"/>
<line opacity="0.1" stroke="#000000" stroke-width="1" x1="198" y1="89" x2="198" y2="10"/>
<line opacity="0.1" stroke="#000000" stroke-width="1" x1="206" y1="89" x2="206" y2="10"/>
<line opacity="0.1" stroke="#000000" stroke-width="1" x1="214" y1="89" x2="214" y2="10"/>
<line opacity="0.1" stroke="#000000" stroke-width="1" x1="222" y1="89" x2="222" y2="10"/>
<line opacity="0.1" stroke="#000000" stroke-width="1" x1="230" y1="89" x2="230" y2="10"/>
<line opacity="0.1" stroke="#000000" stroke-width="1" x1="238" y1="89" x2="238" y2="10"/>
<line opacity="0.1" stroke="#000000" stroke-width="1" x1="246" y1="89" x2="246" y2="10"/>
<line opacity="0.1" stroke="#000000" stroke-width="1" x1="254" y1="89" x2="254" y2="10"/>
<line opacity="0.1" stroke="#000000" stroke-width="1" x1="262" y1="89" x2="262" y2="10"/>
<line opacity="0.1" stroke="#000000" stroke-width="1" x1="270" y1="89" x2="270" y2="10"/>
<line opacity="0.1" stroke="#000000" stroke-width="1" x1="278" y1="89" x2="278" y2="10"/>
<line opacity="0.1" stroke="#000000" stroke-width="1" x1="286" y1="89" x2="286" y2="10"/>
<line opacity="0.1" stroke="#000000" stroke-width="1" x1="294" y1="89" x2="294" y2="10"/>
<line opacity="0.1" stroke="#000000" stroke-width="1" x1="302" y1="89" x2="302" y2="10"/>
<line opacity="0.1" stroke="#000000" stroke-width="1" x1="310" y1="89" x2="310" y2="10"/>
<line opacity="0.1" stroke="#000000" stroke-width="1" x1="318" y1="89" x2="318" y2="10"/>
<line opacity="0.1" stroke="#000000" stroke-width="1" x1="326" y1="89" x2="326" y2="10"/>
<line opacity="0.1" stroke="#000000" stroke-width="1" x1="335" y1="89" x2="335" y2="10"/>
<line opacity="0.1" stroke="#000000" stroke-width="1" x1="343" y1="89" x2="343" y2="10"/>
<line opacity="0.1" stroke="#000000" stroke-width="1" x1="351" y1="89" x2="351" y2="10"/>
<line opacity="0.1" stroke="#000000" stroke-width="1" x1="359" y1="89" x2="359" y2="10"/>
<line opacity="0.1" stroke="#000000" stroke-width="1" x1="367" y1="89" x2="367" y2="10"/>
<line opacity="0.1" stroke="#000000" stroke-width="1" x1="375" y1="89" x2="375" y2="10"/>
<line opacity="0.1" stroke="#000000" stroke-width="1" x1="383" y1="89" x2="383" y2="10"/>
<line opacity="0.1" stroke="#000000" stroke-width="1" x1="391" y1="89" x2="391" y2="10"/>
<line opacity="0.1" stroke="#000000" stroke-width="1" x1="399" y1="89" x2="399" y2="10"/>
<line opacity="0.1" stroke="#000000" stroke-width="1" x1="407" y1="89" x2="407" y2="10"/>
<line opacity="0.1" stroke="#000000" stroke-width="1" x1="415" y1="89" x2="415" y2="10"/>
<line opacity="0.1" stroke="#000000" stroke-width="1" x1="423" y1="89" x2="423" y2="10"/>
<line opacity="0.1" stroke="#000000" stroke-width="1" x1="431" y1="89" x2="431" y2="10"/>
<line opacity="0.1" stroke="#000000" stroke-width="1" x1="439" y1="89" x2="439" y2="10"/>
<line opacity="0.1" stroke="#000000" stroke-width="1" x1="447" y1="89" x2="447" y2="10"/>
<line opacity="0.1" stroke="#000000" stroke-width="1" x1="455" y1="89" x2="455" y2="10"/>
<line opacity="0.1" stroke="#000000" stroke-width="1" x1="463" y1="89" x2="463" y2="10"/>
<line opacity="0.1" stroke="#000000" stroke-width="1" x1="472" y1="89" x2="472" y2="10"/>
<line opacity="0.1" stroke="#000000" stroke-width="1" x1="480" y1="89" x2="480" y2="10"/>
<line opacity="0.1" stroke="#000000" stroke-width="1" x1="488" y1="89" x2="488" y2="10"/>
<line opacity="0.1" stroke="#000000" stroke-width="1" x1="496" y1="89" x2="496" y2="10"/>
<line opacity="0.1" stroke="#000000" stroke-width="1" x1="504" y1="89" x2="504" y2="10"/>
<line opacity="0.1" stroke="#000000" stroke-width="1" x1="512" y1="89" x2="512" y2="10"/>
<line opacity="0.1" stroke="#000000" stroke-width="1" x1="520" y1="89" x2="520" y2="10"/>
<line opacity="0.1" stroke="#000000" stroke-width="1" x1="528" y1="89" x2="528" y2="10"/>
<line opacity="0.1" stroke="#000000" stroke-width="1" x1="536" y1="89" x2="536" y2="10"/>
<line opacity="0.1" stroke="#000000" stroke-width="1" x1="544" y1="89" x2="544" y2="10"/>
<line opacity="0.1" stroke="#000000" stroke-width="1" x1="552" y1="89" x2="552" y2="10"/>
<line opacity="0.1" stroke="#000000" stroke-width="1" x1="560" y1="89" x2="560" y2="10"/>
<line opacity="0.1" stroke="#000000" stroke-width="1" x1="568" y1="89" x2="568" y2="10"/>
<line opacity="0.1" stroke="#000000" stroke-width="1" x1="576" y1="89" x2="576" y2="10"/>
<line opacity="0.1" stroke="#000000" stroke-width="1" x1="584" y1="89" x2="584" y2="10"/>
<line opacity="0.1" stroke="#000000" stroke-width="1" x1="592" y1="89" x2="592" y2="10"/>
<line opacity="0.1" stroke="#000000" stroke-width="1" x1="600" y1="89" x2="600" y2="10"/>
<line opacity="0.1" stroke="#000000" stroke-width="1" x1="609" y1="89" x2="609" y2="10"/>
<line opacity="0.1" stroke="#000000" stroke-width="1" x1="190" y1="89" x2="609" y2="89"/>
<line opacity="0.1" stroke="#000000" stroke-width="1" x1="190" y1="70" x2="609" y2="70"/>
<line opacity="0.1" stroke="#000000" stroke-width="1" x1="190" y1="50" x2="609" y2="50"/>
<line opacity="0.1" stroke="#000000" stroke-width="1" x1="190" y1="30" x2="609" y2="30"/>
<line opacity="0.1" stroke="#000000" stroke-width="1" x1="190" y1="10" x2="609" y2="10"/>
<line opacity="0.2" stroke="#000000" stroke-width="1" x1="198" y1="89" x2="198" y2="10"/>
<line opacity="0.2" stroke="#000000" stroke-width="1" x1="278" y1="89" x2="278" y2="10"/>
<line opacity="0.2" stroke="#000000" stroke-width="1" x1="359" y1="89" x2="359" y2="10"/>
<line opacity="0.2" stroke="#000000" stroke-width="1" x1="439" y1="89" x2="439" y2="10"/>
<line opacity="0.2" stroke="#000000" stroke-width="1" x1="520" y1="89" x2="520" y2="10"/>
<line opacity="0.2" stroke="#000000" stroke-width="1" x1="600" y1="89" x2="600" y2="10"/>
<line opacity="0.2" stroke="#000000" stroke-width="1" x1="190" y1="89" x2="609" y2="89"/>
<line opacity="0.2" stroke="#000000" stroke-width="1" x1="190" y1="70" x2="609" y2="70"/>
<line opacity="0.2" stroke="#000000" stroke-width="1" x1="190" y1="50" x2="609" y2="50"/>
<line opacity="0.2" stroke="#000000" stroke-width="1" x1="190" y1="30" x2="609" y2="30"/>
<line opacity="0.2" stroke="#000000" stroke-width="1" x1="190" y1="10" x2="609" y2="10"/>
<polyline fill="none" opacity="1" stroke="#000000" stroke-width="1" points="189,10 189,89 "/>
<polyline fill="none" opacity="1" stroke="#000000" stroke-width="1" points="185,89 189,89 "/>
<polyline fill="none" opacity="1" stroke="#000000" stroke-width="1" points="185,70 189,70 "/>
<polyline fill="none" opacity="1" stroke="#000000" stroke-width="1" points="185,50 189,50 "/>
<polyline fill="none" opacity="1" stroke="#000000" stroke-width="1" points="185,30 189,30 "/>
<polyline fill="none" opacity="1" stroke="#000000" stroke-width="1" points="185,10 189,10 "/>
<polyline fill="none" opacity="1" stroke="#000000" stroke-width="1" points="190,90 609,90 "/>
<text x="198" y="98" dy="0.76em" text-anchor="middle" font-family="sans-serif" font-size="8.064516129032258" opacity="1" fill="#000000">
0
</text>
<polyline fill="none" opacity="1" stroke="#000000" stroke-width="1" points="198,90 198,94 "/>
<text x="278" y="98" dy="0.76em" text-anchor="middle" font-family="sans-serif" font-size="8.064516129032258" opacity="1" fill="#000000">
10
</text>
<polyline fill="none" opacity="1" stroke="#000000" stroke-width="1" points="278,90 278,94 "/>
<text x="359" y="98" dy="0.76em" text-anchor="middle" font-family="sans-serif" font-size="8.064516129032258" opacity="1" fill="#000000">
20
</text>
<polyline fill="none" opacity="1" stroke="#000000" stroke-width="1" points="359,90 359,94 "/>
<text x="439" y="98" dy="0.76em" text-anchor="middle" font-family="sans-serif" font-size="8.064516129032258" opacity="1" fill="#000000">
30
</text>
<polyline fill="none" opacity="1" stroke="#000000" stroke-width="1" points="439,90 439,94 "/>
<text x="520" y="98" dy="0.76em" text-anchor="middle" font-family="sans-serif" font-size="8.064516129032258" opacity="1" fill="#000000">
40
</text>
<polyline fill="none" opacity="1" stroke="#000000" stroke-width="1" points="520,90 520,94 "/>
<text x="600" y="98" dy="0.76em" text-anchor="middle" font-family="sans-serif" font-size="8.064516129032258" opacity="1" fill="#000000">
50
</text>
<polyline fill="none" opacity="1" stroke="#000000" stroke-width="1" points="600,90 600,94 "/>
<polyline fill="none" opacity="1" stroke="#5A5A5A" stroke-width="5" points="198,30 198,10 "/>
<polyline fill="none" opacity="1" stroke="#5A5A5A" stroke-width="5" points="238,30 238,10 "/>
<polyline fill="none" opacity="1" stroke="#5A5A5A" stroke-width="5" points="278,30 278,10 "/>
<polyline fill="none" opacity="1" stroke="#5A5A5A" stroke-width="5" points="318,30 318,10 "/>
<polyline fill="none" opacity="1" stroke="#5A5A5A" stroke-width="5" points="359,30 359,10 "/>
<polyline fill="none" opacity="1" stroke="#5A5A5A" stroke-width="5" points="399,30 399,10 "/>
<polyline fill="none" opacity="1" stroke="#5A5A5A" stroke-width="5" points="439,30 439,10 "/>
<polyline fill="none" opacity="1" stroke="#5A5A5A" stroke-width="5" points="480,30 480,10 "/>
<polyline fill="none" opacity="1" stroke="#5A5A5A" stroke-width="5" points="520,30 520,10 "/>
<polyline fill="none" opacity="1" stroke="#5A5A5A" stroke-width="5" points="560,30 560,10 "/>
<text x="10" y="20" dy="0.76em" text-anchor="start" font-family="sans-serif" font-size="14.516129032258064" opacity="1" fill="#000000">
5@0
</text>
<polyline fill="none" opacity="1" stroke="#8C8C8C" stroke-width="5" points="214,50 214,30 "/>
<polyline fill="none" opacity="1" stroke="#8C8C8C" stroke-width="5" points="246,50 246,30 "/>
<polyline fill="none" opacity="1" stroke="#8C8C8C" stroke-width="5" points="278,50 278,30 "/>
<polyline fill="none" opacity="1" stroke="#8C8C8C" stroke-width="5" points="310,50 310,30 "/>
<polyline fill="none" opacity="1" stroke="#8C8C8C" stroke-width="5" points="343,50 343,30 "/>
<polyline fill="none" opacity="1" stroke="#8C8C8C" stroke-width="5" points="375,50 375,30 "/>
<polyline fill="none" opacity="1" stroke="#8C8C8C" stroke-width="5" points="407,50 407,30 "/>
<polyline fill="none" opacity="1" stroke="#8C8C8C" stroke-width="5" points="439,50 439,30 "/>
<polyline fill="none" opacity="1" stroke="#8C8C8C" stroke-width="5" points="472,50 472,30 "/>
<polyline fill="none" opacity="1" stroke="#8C8C8C" stroke-width="5" points="504,50 504,30 "/>
<polyline fill="none" opacity="1" stroke="#8C8C8C" stroke-width="5" points="536,50 536,30 "/>
<polyline fill="none" opacity="1" stroke="#8C8C8C" stroke-width="5" points="568,50 568,30 "/>
<text x="10" y="41" dy="0.76em" text-anchor="start" font-family="sans-serif" font-size="14.516129032258064" opacity="1" fill="#000000">
4@2
</text>
<polyline fill="none" opacity="1" stroke="#5A5A5A" stroke-width="5" points="278,70 278,50 "/>
<polyline fill="none" opacity="1" stroke="#5A5A5A" stroke-width="5" points="520,70 520,50 "/>
<text x="10" y="62" dy="0.76em" text-anchor="start" font-family="sans-serif" font-size="14.516129032258064" opacity="1" fill="#000000">
30@10
</text>
<polyline fill="none" opacity="1" stroke="#8C8C8C" stroke-width="5" points="198,89 198,70 "/>
<polyline fill="none" opacity="1" stroke="#8C8C8C" stroke-width="5" points="206,89 206,70 "/>
<polyline fill="none" opacity="1" stroke="#8C8C8C" stroke-width="5" points="214,89 214,70 "/>
<polyline fill="none" opacity="1" stroke="#8C8C8C" stroke-width="5" points="222,89 222,70 "/>
<polyline fill="none" opacity="1" stroke="#8C8C8C" stroke-width="5" points="230,89 230,70 "/>
<polyline fill="none" opacity="1" stroke="#8C8C8C" stroke-width="5" points="238,89 238,70 "/>
<polyline fill="none" opacity="1" stroke="#8C8C8C" stroke-width="5" points="246,89 246,70 "/>
<polyline fill="none" opacity="1" stroke="#8C8C8C" stroke-width="5" points="254,89 254,70 "/>
<polyline fill="none" opacity="1" stroke="#8C8C8C" stroke-width="5" points="262,89 262,70 "/>
<polyline fill="none" opacity="1" stroke="#8C8C8C" stroke-width="5" points="270,89 270,70 "/>
<polyline fill="none" opacity="1" stroke="#8C8C8C" stroke-width="5" points="286,89 286,70 "/>
<polyline fill="none" opacity="1" stroke="#8C8C8C" stroke-width="5" points="294,89 294,70 "/>
<polyline fill="none" opacity="1" stroke="#8C8C8C" stroke-width="5" points="302,89 302,70 "/>
<polyline fill="none" opacity="1" stroke="#8C8C8C" stroke-width="5" points="310,89 310,70 "/>
<polyline fill="none" opacity="1" stroke="#8C8C8C" stroke-width="5" points="318,89 318,70 "/>
<polyline fill="none" opacity="1" stroke="#8C8C8C" stroke-width="5" points="326,89 326,70 "/>
<polyline fill="none" opacity="1" stroke="#8C8C8C" stroke-width="5" points="335,89 335,70 "/>
<polyline fill="none" opacity="1" stroke="#8C8C8C" stroke-width="5" points="343,89 343,70 "/>
<polyline fill="none" opacity="1" stroke="#8C8C8C" stroke-width="5" points="351,89 351,70 "/>
<polyline fill="none" opacity="1" stroke="#8C8C8C" stroke-width="5" points="359,89 359,70 "/>
<polyline fill="none" opacity="1" stroke="#8C8C8C" stroke-width="5" points="367,89 367,70 "/>
<polyline fill="none" opacity="1" stroke="#8C8C8C" stroke-width="5" points="375,89 375,70 "/>
<polyline fill="none" opacity="1" stroke="#8C8C8C" stroke-width="5" points="383,89 383,70 "/>
<polyline fill="none" opacity="1" stroke="#8C8C8C" stroke-width="5" points="391,89 391,70 "/>
<polyline fill="none" opacity="1" stroke="#8C8C8C" stroke-width="5" points="399,89 399,70 "/>
<polyline fill="none" opacity="1" stroke="#8C8C8C" stroke-width="5" points="407,89 407,70 "/>
<polyline fill="none" opacity="1" stroke="#8C8C8C" stroke-width="5" points="415,89 415,70 "/>
<polyline fill="none" opacity="1" stroke="#8C8C8C" stroke-width="5" points="423,89 423,70 "/>
<polyline fill="none" opacity="1" stroke="#8C8C8C" stroke-width="5" points="431,89 431,70 "/>
<polyline fill="none" opacity="1" stroke="#8C8C8C" stroke-width="5" points="439,89 439,70 "/>
<polyline fill="none" opacity="1" stroke="#8C8C8C" stroke-width="5" points="447,89 447,70 "/>
<polyline fill="none" opacity="1" stroke="#8C8C8C" stroke-width="5" points="455,89 455,70 "/>
<polyline fill="none" opacity="1" stroke="#8C8C8C" stroke-width="5" points="463,89 463,70 "/>
<polyline fill="none" opacity="1" stroke="#8C8C8C" stroke-width="5" points="472,89 472,70 "/>
<polyline fill="none" opacity="1" stroke="#8C8C8C" stroke-width="5" points="480,89 480,70 "/>
<polyline fill="none" opacity="1" stroke="#8C8C8C" stroke-width="5" points="488,89 488,70 "/>
<polyline fill="none" opacity="1" stroke="#8C8C8C" stroke-width="5" points="496,89 496,70 "/>
<polyline fill="none" opacity="1" stroke="#8C8C8C" stroke-width="5" points="504,89 504,70 "/>
<polyline fill="none" opacity="1" stroke="#8C8C8C" stroke-width="5" points="512,89 512,70 "/>
<polyline fill="none" opacity="1" stroke="#8C8C8C" stroke-width="5" points="528,89 528,70 "/>
<polyline fill="none" opacity="1" stroke="#8C8C8C" stroke-width="5" points="536,89 536,70 "/>
<polyline fill="none" opacity="1" stroke="#8C8C8C" stroke-width="5" points="544,89 544,70 "/>
<polyline fill="none" opacity="1" stroke="#8C8C8C" stroke-width="5" points="552,89 552,70 "/>
<polyline fill="none" opacity="1" stroke="#8C8C8C" stroke-width="5" points="560,89 560,70 "/>
<polyline fill="none" opacity="1" stroke="#8C8C8C" stroke-width="5" points="568,89 568,70 "/>
<polyline fill="none" opacity="1" stroke="#8C8C8C" stroke-width="5" points="576,89 576,70 "/>
<polyline fill="none" opacity="1" stroke="#8C8C8C" stroke-width="5" points="584,89 584,70 "/>
<polyline fill="none" opacity="1" stroke="#8C8C8C" stroke-width="5" points="592,89 592,70 "/>
<text x="10" y="83" dy="0.76em" text-anchor="start" font-family="sans-serif" font-size="14.516129032258064" opacity="1" fill="#000000">
!30@10
</text>
</svg>
