<svg width="620" height="145" viewBox="0 0 620 145" xmlns="http://www.w3.org/2000/svg">
<rect x="0" y="0" width="620" height="145" opacity="1" fill="#DCDCE6" stroke="none"/>
<line opacity="0.1" stroke="#000000" stroke-width="1" x1="190" y1="114" x2="190" y2="10"/>
<line opacity="0.1" stroke="#000000" stroke-width="1" x1="198" y1="114" x2="198" y2="10"/>
<line opacity="0.1" stroke="#000000" stroke-width="1" x1="206" y1="114" x2="206" y2="10"/>
<line opacity="0.1" stroke="#000000" stroke-width="1" x1="214" y1="114" x2="214" y2="10"/>
<line opacity="0.1" stroke="#000000" stroke-width="1" x1="222" y1="114" x2="222" y2="10"/>
<line opacity="0.1" stroke="#000000" stroke-width="1" x1="230" y1="114" x2="230" y2="10"/>
<line opacity="0.1" stroke="#000000" stroke-width="1" x1="238" y1="114" x2="238" y2="10"/>
<line opacity="0.1" stroke="#000000" stroke-width="1" x1="246" y1="114" x2="246" y2="10"/>
<line opacity="0.1" stroke="#000000" stroke-width="1" x1="254" y1="114" x2="254" y2="10"/>
<line opacity="0.1" stroke="#000000" stroke-width="1" x1="262" y1="114" x2="262" y2="10"/>
<line opacity="0.1" stroke="#000000" stroke-width="1" x1="270" y1="114" x2="270" y2="10"/>
<line opacity="0.1" stroke="#000000" stroke-width="1" x1="278" y1="114" x2="278" y2="10"/>
<line opacity="0.1" stroke="#000000" stroke-width="1" x1="286" y1="114" x2="286" y2="10"/>
<line opacity="0.1" stroke="#000000" stroke-width="1" x1="294" y1="114" x2="294" y2="10"/>
<line opacity="0.1" stroke="#000000" stroke-width="1" x1="302" y1="114" x2="302" y2="10"/>
<line opacity="0.1" stroke="#000000" stroke-width="1" x1="310" y1="114" x2="310" y2="10"/>
<line opacity="0.1" stroke="#000000" stroke-width="1" x1="318" y1="114" x2="318" y2="10"/>
<line opacity="0.1" stroke="#000000" stroke-width="1" x1="326" y1="114" x2="326" y2="10"/>
<line opacity="0.1" stroke="#000000" stroke-width="1" x1="335" y1="114" x2="335" y2="10"/>
<line opacity="0.1" stroke="#000000" stroke-width="1" x1="343" y1="114" x2="343" y2="10"/>
<line opacity="0.1" stroke="#000000" stroke-width="1" x1="351" y1="114" x2="351" y2="10"/>
<line opacity="0.1" stroke="#000000" stroke-width="1" x1="359" y1="114" x2="359" y2="10"/>
<line opacity="0.1" stroke="#000000" stroke-width="1" x1="367" y1="114" x2="367" y2="10"/>
<line opacity="0.1" stroke="#000000" stroke-width="1" x1="375" y1="114" x2="375" y2="10"/>
<line opacity="0.1" stroke="#000000" stroke-width="1" x1="383" y1="114" x2="383" y2="10"/>
<line opacity="0.1" stroke="#000000" stroke-width="1" x1="391" y1="114" x2="391" y2="10"/>
<line opacity="0.1" stroke="#000000" stroke-width="1" x1="399" y1="114" x2="399" y2="10"/>
<line opacity="0.1" stroke="#000000" stroke-width="1" x1="407" y1="114" x2="407" y2="10"/>
<line opacity="0.1" stroke="#000000" stroke-width="1" x1="415" y1="114" x2="415" y2="10"/>
<line opacity="0.1" stroke="#000000" stroke-width="1" x1="423" y1="114" x2="423" y2="10"/>
<line opacity="0.1" stroke="#000000" stroke-width="1" x1="431" y1="114" x2="431" y2="10"/>
<line opacity="0.1" stroke="#000000" stroke-width="1" x1="439" y1="114" x2="439" y2="10"/>
<line opacity="0.1" stroke="#000000" stroke-width="1" x1="447" y1="114" x2="447" y2="10"/>
<line opacity="0.1" stroke="#000000" stroke-width="1" x1="455" y1="114" x2="455" y2="10"/>
<line opacity="0.1" stroke="#000000" stroke-width="1" x1="463" y1="114" x2="463" y2="10"/>
<line opacity="0.1" stroke="#000000" stroke-width="1" x1="472" y1="114" x2="472" y2="10"/>
<line opacity="0.1" stroke="#000000" stroke-width="1" x1="480" y1="114" x2="480" y2="10"/>
<line opacity="0.1" stroke="#000000" stroke-width="1" x1="488" y1="114" x2="488" y2="10"/>
<line opacity="0.1" stroke="#000000" stroke-width="1" x1="496" y1="114" x2="496" y2="10"/>
<line opacity="0.1" stroke="#000000" stroke-width="1" x1="504" y1="114" x2="504" y2="10"/>
<line opacity="0.1" stroke="#000000" stroke-width="1" x1="512" y1="114" x2="512" y2="10"/>
<line opacity="0.1" stroke="#000000" stroke-width="1" x1="520" y1="114" x2="520" y2="10"/>
<line opacity="0.1" stroke="#000000" stroke-width="1" x1="528" y1="114" x2="528" y2="10"/>
<line opacity="0.1" stroke="#000000" stroke-width="1" x1="536" y1="114" x2="536" y2="10"/>
<line opacity="0.1" stroke="#000000" stroke-width="1" x1="544" y1="114" x2="544" y2="10"/>
<line opacity="0.1" stroke="#000000" stroke-width="1" x1="552" y1="114" x2="552" y2="10"/>
<line opacity="0.1" stroke="#000000" stroke-width="1" x1="560" y1="114" x2="560" y2="10"/>
<line opacity="0.1" stroke="#000000" stroke-width="1" x1="568" y1="114" x2="568" y2="10"/>
<line opacity="0.1" stroke="#000000" stroke-width="1" x1="576" y1="114" x2="576" y2="10"/>
<line opacity="0.1" stroke="#000000" stroke-width="1" x1="584" y1="114" x2="584" y2="10"/>
<line opacity="0.1" stroke="#000000" stroke-width="1" x1="592" y1="114" x2="592" y2="10"/>
<line opacity="0.1" stroke="#000000" stroke-width="1" x1="600" y1="114" x2="600" y2="10"/>
<line opacity="0.1" stroke="#000000" stroke-width="1" x1="609" y1="114" x2="609" y2="10"/>
<line opacity="0.1" stroke="#000000" stroke-width="1" x1="190" y1="114" x2="609" y2="114"/>
<line opacity="0.1" stroke="#000000" stroke-width="1" x1="190" y1="94" x2="609" y2="94"/>
<line opacity="0.1" stroke="#000000" stroke-width="1" x1="190" y1="73" x2="609" y2="73"/>
<line opacity="0.1" stroke="#000000" stroke-width="1" x1="190" y1="52" x2="609" y2="52"/>
<line opacity="0.1" stroke="#000000" stroke-width="1" x1="190" y1="31" x2="609" y2="31"/>
<line opacity="0.1" stroke="#000000" stroke-width="1" x1="190" y1="10" x2="609" y2="10"/>
<line opacity="0.2" stroke="#000000" stroke-width="1" x1="198" y1="114" x2="198" y2="10"/>
<line opacity="0.2" stroke="#000000" stroke-width="1" x1="278" y1="114" x2="278" y2="10"/>
<line opacity="0.2" stroke="#000000" stroke-width="1" x1="359" y1="114" x2="359" y2="10"/>
<line opacity="0.2" stroke="#000000" stroke-width="1" x1="439" y1="114" x2="439" y2="10"/>
<line opacity="0.2" stroke="#000000" stroke-width="1" x1="520" y1="114" x2="520" y2="10"/>
<line opacity="0.2" stroke="#000000" stroke-width="1" x1="600" y1="114" x2="600" y2="10"/>
<line opacity="0.2" stroke="#000000" stroke-width="1" x1="190" y1="114" x2="609" y2="114"/>
<line opacity="0.2" stroke="#000000" stroke-width="1" x1="190" y1="94" x2="609" y2="94"/>
<line opacity="0.2" stroke="#000000" stroke-width="1" x1="190" y1="73" x2="609" y2="73"/>
<line opacity="0.2" stroke="#000000" stroke-width="1" x1="190" y1="52" x2="609" y2="52"/>
<line opacity="0.2" stroke="#000000" stroke-width="1" x1="190" y1="31" x2="609" y2="31"/>
<line opacity="0.2" stroke="#000000" stroke-width="1" x1="190" y1="10" x2="609" y2="10"/>
<polyline fill="none" opacity="1" stroke="#000000" stroke-width="1" points="189,10 189,114 "/>
<polyline fill="none" opacity="1" stroke="#000000" stroke-width="1" points="184,114 189,114 "/>
<polyline fill="none" opacity="1" stroke="#000000" stroke-width="1" points="184,94 189,94 "/>
<polyline fill="none" opacity="1" stroke="#000000" stroke-width="1" points="184,73 189,73 "/>
<polyline fill="none" opacity="1" stroke="#000000" stroke-width="1" points="184,52 189,52 "/>
<polyline fill="none" opacity="1" stroke="#000000" stroke-width="1" points="184,31 189,31 "/>
<polyline fill="none" opacity="1" stroke="#000000" stroke-width="1" points="184,10 189,10 "/>
<polyline fill="none" opacity="1" stroke="#000000" stroke-width="1" points="190,115 609,115 "/>
<text x="198" y="125" dy="0.76em" text-anchor="middle" font-family="sans-serif" font-size="9.67741935483871" opacity="1" fill="#000000">
0
</text>
<polyline fill="none" opacity="1" stroke="#000000" stroke-width="1" points="198,115 198,120 "/>
<text x="278" y="125" dy="0.76em" text-anchor="middle" font-family="sans-serif" font-size="9.67741935483871" opacity="1" fill="#000000">
10
</text>
<polyline fill="none" opacity="1" stroke="#000000" stroke-width="1" points="278,115 278,120 "/>
<text x="359" y="125" dy="0.76em" text-anchor="middle" font-family="sans-serif" font-size="9.67741935483871" opacity="1" fill="#000000">
20
</text>
<polyline fill="none" opacity="1" stroke="#000000" stroke-width="1" points="359,115 359,120 "/>
<text x="439" y="125" dy="0.76em" text-anchor="middle" font-family="sans-serif" font-size="9.67741935483871" opacity="1" fill="#000000">
30
</text>
<polyline fill="none" opacity="1" stroke="#000000" stroke-width="1" points="439,115 439,120 "/>
<text x="520" y="125" dy="0.76em" text-anchor="middle" font-family="sans-serif" font-size="9.67741935483871" opacity="1" fill="#000000">
40
</text>
<polyline fill="none" opacity="1" stroke="#000000" stroke-width="1" points="520,115 520,120 "/>
<text x="600" y="125" dy="0.76em" text-anchor="middle" font-family="sans-serif" font-size="9.67741935483871" opacity="1" fill="#000000">
50
</text>
<polyline fill="none" opacity="1" stroke="#000000" stroke-width="1" points="600,115 600,120 "/>
<polyline fill="none" opacity="1" stroke="#5A5A5A" stroke-width="5" points="198,31 198,10 "/>
<polyline fill="none" opacity="1" stroke="#5A5A5A" stroke-width="5" points="238,31 238,10 "/>
<polyline fill="none" opacity="1" stroke="#5A5A5A" stroke-width="5" points="278,31 278,10 "/>
<polyline fill="none" opacity="1" stroke="#5A5A5A" stroke-width="5" points="318,31 318,10 "/>
<polyline fill="none" opacity="1" stroke="#5A5A5A" stroke-width="5" points="359,31 359,10 "/>
<polyline fill="none" opacity="1" stroke="#5A5A5A" stroke-width="5" points="399,31 399,10 "/>
<polyline fill="none" opacity="1" stroke="#5A5A5A" stroke-width="5" points="439,31 439,10 "/>
<polyline fill="none" opacity="1" stroke="#5A5A5A" stroke-width="5" points="480,31 480,10 "/>
<polyline fill="none" opacity="1" stroke="#5A5A5A" stroke-width="5" points="520,31 520,10 "/>
<polyline fill="none" opacity="1" stroke="#5A5A5A" stroke-width="5" points="560,31 560,10 "/>
<text x="10" y="20" dy="0.76em" text-anchor="start" font-family="sans-serif" font-size="14.516129032258064" opacity="1" fill="#000000">
5@0
</text>
<polyline fill="none" opacity="1" stroke="#8C8C8C" stroke-width="5" points="214,52 214,31 "/>
<polyline fill="none" opacity="1" stroke="#8C8C8C" stroke-width="5" points="246,52 246,31 "/>
<polyline fill="none" opacity="1" stroke="#8C8C8C" stroke-width="5" points="278,52 278,31 "/>
<polyline fill="none" opacity="1" stroke="#8C8C8C" stroke-width="5" points="310,52 310,31 "/>
<polyline fill="none" opacity="1" stroke="#8C8C8C" stroke-width="5" points="343,52 343,31 "/>
<polyline fill="none" opacity="1" stroke="#8C8C8C" stroke-width="5" points="375,52 375,31 "/>
<polyline fill="none" opacity="1" stroke="#8C8C8C" stroke-width="5" points="407,52 407,31 "/>
<polyline fill="none" opacity="1" stroke="#8C8C8C" stroke-width="5" points="439,52 439,31 "/>
<polyline fill="none" opacity="1" stroke="#8C8C8C" stroke-width="5" points="472,52 472,31 "/>
<polyline fill="none" opacity="1" stroke="#8C8C8C" stroke-width="5" points="504,52 504,31 "/>
<polyline fill="none" opacity="1" stroke="#8C8C8C" stroke-width="5" points="536,52 536,31 "/>
<polyline fill="none" opacity="1" stroke="#8C8C8C" stroke-width="5" points="568,52 568,31 "/>
<text x="10" y="41" dy="0.76em" text-anchor="start" font-family="sans-serif" font-size="14.516129032258064" opacity="1" fill="#000000">
4@2
</text>
<polyline fill="none" opacity="1" stroke="#5A5A5A" stroke-width="5" points="198,73 198,52 "/>
<polyline fill="none" opacity="1" stroke="#5A5A5A" stroke-width="5" points="214,73 214,52 "/>
<polyline fill="none" opacity="1" stroke="#5A5A5A" stroke-width="5" points="238,73 238,52 "/>
<polyline fill="none" opacity="1" stroke="#5A5A5A" stroke-width="5" points="246,73 246,52 "/>
<polyline fill="none" opacity="1" stroke="#5A5A5A" stroke-width="5" points="278,73 278,52 "/>
<polyline fill="none" opacity="1" stroke="#5A5A5A" stroke-width="5" points="310,73 310,52 "/>
<polyline fill="none" opacity="1" stroke="#5A5A5A" stroke-width="5" points="318,73 318,52 "/>
<polyline fill="none" opacity="1" stroke="#5A5A5A" stroke-width="5" points="343,73 343,52 "/>
<polyline fill="none" opacity="1" stroke="#5A5A5A" stroke-width="5" points="359,73 359,52 "/>
<polyline fill="none" opacity="1" stroke="#5A5A5A" stroke-width="5" points="375,73 375,52 "/>
<polyline fill="none" opacity="1" stroke="#5A5A5A" stroke-width="5" points="399,73 399,52 "/>
<polyline fill="none" opacity="1" stroke="#5A5A5A" stroke-width="5" points="407,73 407,52 "/>
<polyline fill="none" opacity="1" stroke="#5A5A5A" stroke-width="5" points="439,73 439,52 "/>
<polyline fill="none" opacity="1" stroke="#5A5A5A" stroke-width="5" points="472,73 472,52 "/>
<polyline fill="none" opacity="1" stroke="#5A5A5A" stroke-width="5" points="480,73 480,52 "/>
<polyline fill="none" opacity="1" stroke="#5A5A5A" stroke-width="5" points="504,73 504,52 "/>
<polyline fill="none" opacity="1" stroke="#5A5A5A" stroke-width="5" points="520,73 520,52 "/>
<polyline fill="none" opacity="1" stroke="#5A5A5A" stroke-width="5" points="536,73 536,52 "/>
<polyline fill="none" opacity="1" stroke="#5A5A5A" stroke-width="5" points="560,73 560,52 "/>
<polyline fill="none" opacity="1" stroke="#5A5A5A" stroke-width="5" points="568,73 568,52 "/>
<text x="10" y="62" dy="0.76em" text-anchor="start" font-family="sans-serif" font-size="14.516129032258064" opacity="1" fill="#000000">
5@0|4@2
</text>
<polyline fill="none" opacity="1" stroke="#8C8C8C" stroke-width="5" points="198,94 198,73 "/>
<polyline fill="none" opacity="1" stroke="#8C8C8C" stroke-width="5" points="206,94 206,73 "/>
<polyline fill="none" opacity="1" stroke="#8C8C8C" stroke-width="5" points="214,94 214,73 "/>
<polyline fill="none" opacity="1" stroke="#8C8C8C" stroke-width="5" points="222,94 222,73 "/>
<polyline fill="none" opacity="1" stroke="#8C8C8C" stroke-width="5" points="230,94 230,73 "/>
<polyline fill="none" opacity="1" stroke="#8C8C8C" stroke-width="5" points="238,94 238,73 "/>
<polyline fill="none" opacity="1" stroke="#8C8C8C" stroke-width="5" points="246,94 246,73 "/>
<polyline fill="none" opacity="1" stroke="#8C8C8C" stroke-width="5" points="254,94 254,73 "/>
<polyline fill="none" opacity="1" stroke="#8C8C8C" stroke-width="5" points="262,94 262,73 "/>
<polyline fill="none" opacity="1" stroke="#8C8C8C" stroke-width="5" points="270,94 270,73 "/>
<polyline fill="none" opacity="1" stroke="#8C8C8C" stroke-width="5" points="286,94 286,73 "/>
<polyline fill="none" opacity="1" stroke="#8C8C8C" stroke-width="5" points="294,94 294,73 "/>
<polyline fill="none" opacity="1" stroke="#8C8C8C" stroke-width="5" points="302,94 302,73 "/>
<polyline fill="none" opacity="1" stroke="#8C8C8C" stroke-width="5" points="310,94 310,73 "/>
<polyline fill="none" opacity="1" stroke="#8C8C8C" stroke-width="5" points="318,94 318,73 "/>
<polyline fill="none" opacity="1" stroke="#8C8C8C" stroke-width="5" points="326,94 326,73 "/>
<polyline fill="none" opacity="1" stroke="#8C8C8C" stroke-width="5" points="335,94 335,73 "/>
<polyline fill="none" opacity="1" stroke="#8C8C8C" stroke-width="5" points="343,94 343,73 "/>
<polyline fill="none" opacity="1" stroke="#8C8C8C" stroke-width="5" points="351,94 351,73 "/>
<polyline fill="none" opacity="1" stroke="#8C8C8C" stroke-width="5" points="359,94 359,73 "/>
<polyline fill="none" opacity="1" stroke="#8C8C8C" stroke-width="5" points="367,94 367,73 "/>
<polyline fill="none" opacity="1" stroke="#8C8C8C" stroke-width="5" points="375,94 375,73 "/>
<polyline fill="none" opacity="1" stroke="#8C8C8C" stroke-width="5" points="383,94 383,73 "/>
<polyline fill="none" opacity="1" stroke="#8C8C8C" stroke-width="5" points="391,94 391,73 "/>
<polyline fill="none" opacity="1" stroke="#8C8C8C" stroke-width="5" points="399,94 399,73 "/>
<polyline fill="none" opacity="1" stroke="#8C8C8C" stroke-width="5" points="407,94 407,73 "/>
<polyline fill="none" opacity="1" stroke="#8C8C8C" stroke-width="5" points="415,94 415,73 "/>
<polyline fill="none" opacity="1" stroke="#8C8C8C" stroke-width="5" points="423,94 423,73 "/>
<polyline fill="none" opacity="1" stroke="#8C8C8C" stroke-width="5" points="431,94 431,73 "/>
<polyline fill="none" opacity="1" stroke="#8C8C8C" stroke-width="5" points="439,94 439,73 "/>
<polyline fill="none" opacity="1" stroke="#8C8C8C" stroke-width="5" points="447,94 447,73 "/>
<polyline fill="none" opacity="1" stroke="#8C8C8C" stroke-width="5" points="455,94 455,73 "/>
<polyline fill="none" opacity="1" stroke="#8C8C8C" stroke-width="5" points="463,94 463,73 "/>
<polyline fill="none" opacity="1" stroke="#8C8C8C" stroke-width="5" points="472,94 472,73 "/>
<polyline fill="none" opacity="1" stroke="#8C8C8C" stroke-width="5" points="480,94 480,73 "/>
<polyline fill="none" opacity="1" stroke="#8C8C8C" stroke-width="5" points="488,94 488,73 "/>
<polyline fill="none" opacity="1" stroke="#8C8C8C" stroke-width="5" points="496,94 496,73 "/>
<polyline fill="none" opacity="1" stroke="#8C8C8C" stroke-width="5" points="504,94 504,73 "/>
<polyline fill="none" opacity="1" stroke="#8C8C8C" stroke-width="5" points="512,94 512,73 "/>
<polyline fill="none" opacity="1" stroke="#8C8C8C" stroke-width="5" points="528,94 528,73 "/>
<polyline fill="none" opacity="1" stroke="#8C8C8C" stroke-width="5" points="536,94 536,73 "/>
<polyline fill="none" opacity="1" stroke="#8C8C8C" stroke-width="5" points="544,94 544,73 "/>
<polyline fill="none" opacity="1" stroke="#8C8C8C" stroke-width="5" points="552,94 552,73 "/>
<polyline fill="none" opacity="1" stroke="#8C8C8C" stroke-width="5" points="560,94 560,73 "/>
<polyline fill="none" opacity="1" stroke="#8C8C8C" stroke-width="5" points="568,94 568,73 "/>
<polyline fill="none" opacity="1" stroke="#8C8C8C" stroke-width="5" points="576,94 576,73 "/>
<polyline fill="none" opacity="1" stroke="#8C8C8C" stroke-width="5" points="584,94 584,73 "/>
<polyline fill="none" opacity="1" stroke="#8C8C8C" stroke-width="5" points="592,94 592,73 "/>
<text x="10" y="83" dy="0.76em" text-anchor="start" font-family="sans-serif" font-size="14.516129032258064" opacity="1" fill="#000000">
!30@10
</text>
<polyline fill="none" opacity="1" stroke="#5A5A5A" stroke-width="5" points="198,114 198,94 "/>
<polyline fill="none" opacity="1" stroke="#5A5A5A" stroke-width="5" points="214,114 214,94 "/>
<polyline fill="none" opacity="1" stroke="#5A5A5A" stroke-width="5" points="238,114 238,94 "/>
<polyline fill="none" opacity="1" stroke="#5A5A5A" stroke-width="5" points="246,114 246,94 "/>
<polyline fill="none" opacity="1" stroke="#5A5A5A" stroke-width="5" points="310,114 310,94 "/>
<polyline fill="none" opacity="1" stroke="#5A5A5A" stroke-width="5" points="318,114 318,94 "/>
<polyline fill="none" opacity="1" stroke="#5A5A5A" stroke-width="5" points="343,114 343,94 "/>
<polyline fill="none" opacity="1" stroke="#5A5A5A" stroke-width="5" points="359,114 359,94 "/>
<polyline fill="none" opacity="1" stroke="#5A5A5A" stroke-width="5" points="375,114 375,94 "/>
<polyline fill="none" opacity="1" stroke="#5A5A5A" stroke-width="5" points="399,114 399,94 "/>
<polyline fill="none" opacity="1" stroke="#5A5A5A" stroke-width="5" points="407,114 407,94 "/>
<polyline fill="none" opacity="1" stroke="#5A5A5A" stroke-width="5" points="439,114 439,94 "/>
<polyline fill="none" opacity="1" stroke="#5A5A5A" stroke-width="5" points="472,114 472,94 "/>
<polyline fill="none" opacity="1" stroke="#5A5A5A" stroke-width="5" points="480,114 480,94 "/>
<polyline fill="none" opacity="1" stroke="#5A5A5A" stroke-width="5" points="504,114 504,94 "/>
<polyline fill="none" opacity="1" stroke="#5A5A5A" stroke-width="5" points="536,114 536,94 "/>
<polyline fill="none" opacity="1" stroke="#5A5A5A" stroke-width="5" points="560,114 560,94 "/>
<polyline fill="none" opacity="1" stroke="#5A5A5A" stroke-width="5" points="568,114 568,94 "/>
<text x="10" y="104" dy="0.76em" text-anchor="start" font-family="sans-serif" font-size="14.516129032258064" opacity="1" fill="#000000">
(5@0|4@2)&amp;!30@10
</text>
</svg>
